<mxfile host="Electron" modified="2023-08-19T02:26:05.902Z" agent="Mozilla/5.0 (Windows NT 10.0; Win64; x64) AppleWebKit/537.36 (KHTML, like Gecko) draw.io/21.6.1 Chrome/112.0.5615.204 Electron/24.6.1 Safari/537.36" etag="jvrzd7FyyGZZ4xw544fA" version="21.6.1" type="device">
  <diagram name="第 1 页" id="E7FV8pIwXT6nveTNGaCU">
    <mxGraphModel dx="2058" dy="1188" grid="1" gridSize="10" guides="1" tooltips="1" connect="1" arrows="1" fold="1" page="1" pageScale="1" pageWidth="827" pageHeight="1169" math="0" shadow="0">
      <root>
        <mxCell id="0" />
        <mxCell id="1" parent="0" />
        <mxCell id="DIw15B_6P46cHO6aUXGj-1" value="" style="endArrow=none;html=1;rounded=0;strokeWidth=3;" parent="1" edge="1">
          <mxGeometry width="50" height="50" relative="1" as="geometry">
            <mxPoint x="160" y="140" as="sourcePoint" />
            <mxPoint x="870" y="140" as="targetPoint" />
          </mxGeometry>
        </mxCell>
        <mxCell id="DIw15B_6P46cHO6aUXGj-2" value="" style="endArrow=none;html=1;rounded=0;strokeWidth=1;" parent="1" edge="1">
          <mxGeometry width="50" height="50" relative="1" as="geometry">
            <mxPoint x="160" y="180" as="sourcePoint" />
            <mxPoint x="870" y="180" as="targetPoint" />
          </mxGeometry>
        </mxCell>
        <mxCell id="DIw15B_6P46cHO6aUXGj-3" value="&lt;font style=&quot;font-size: 17px;&quot;&gt;算法&lt;/font&gt;" style="text;html=1;align=center;verticalAlign=middle;resizable=0;points=[];autosize=1;strokeColor=none;fillColor=none;" parent="1" vertex="1">
          <mxGeometry x="210" y="145" width="60" height="30" as="geometry" />
        </mxCell>
        <mxCell id="DIw15B_6P46cHO6aUXGj-5" value="&lt;span style=&quot;font-size: 17px;&quot;&gt;mAP50&lt;/span&gt;" style="text;html=1;align=center;verticalAlign=middle;resizable=0;points=[];autosize=1;strokeColor=none;fillColor=none;" parent="1" vertex="1">
          <mxGeometry x="590" y="145" width="80" height="30" as="geometry" />
        </mxCell>
        <mxCell id="DIw15B_6P46cHO6aUXGj-6" value="" style="endArrow=none;html=1;rounded=0;strokeWidth=3;" parent="1" edge="1">
          <mxGeometry width="50" height="50" relative="1" as="geometry">
            <mxPoint x="160" y="400" as="sourcePoint" />
            <mxPoint x="870" y="400" as="targetPoint" />
          </mxGeometry>
        </mxCell>
        <mxCell id="VicLum9elVRLqYhQIz21-1" value="&lt;span style=&quot;font-size: 17px;&quot;&gt;准确率&lt;/span&gt;" style="text;html=1;align=center;verticalAlign=middle;resizable=0;points=[];autosize=1;strokeColor=none;fillColor=none;" parent="1" vertex="1">
          <mxGeometry x="350" y="145" width="70" height="30" as="geometry" />
        </mxCell>
        <mxCell id="VicLum9elVRLqYhQIz21-3" value="&lt;font style=&quot;font-size: 17px;&quot;&gt;召回率&lt;/font&gt;" style="text;html=1;align=center;verticalAlign=middle;resizable=0;points=[];autosize=1;strokeColor=none;fillColor=none;" parent="1" vertex="1">
          <mxGeometry x="470" y="145" width="70" height="30" as="geometry" />
        </mxCell>
        <mxCell id="VicLum9elVRLqYhQIz21-4" value="&lt;span style=&quot;font-size: 17px;&quot;&gt;mAP50-95&lt;br&gt;&lt;/span&gt;" style="text;html=1;align=center;verticalAlign=middle;resizable=0;points=[];autosize=1;strokeColor=none;fillColor=none;" parent="1" vertex="1">
          <mxGeometry x="720" y="145" width="100" height="30" as="geometry" />
        </mxCell>
        <mxCell id="LVU2TZhHI7isc304q9fP-5" value="" style="group" parent="1" vertex="1" connectable="0">
          <mxGeometry x="160" y="198" width="180" height="182" as="geometry" />
        </mxCell>
        <mxCell id="DIw15B_6P46cHO6aUXGj-8" value="&lt;font style=&quot;font-size: 13px;&quot;&gt;&lt;b&gt;YOLOv8m&lt;/b&gt;&lt;/font&gt;" style="text;html=1;align=center;verticalAlign=middle;resizable=0;points=[];autosize=1;strokeColor=none;fillColor=none;strokeWidth=1;" parent="LVU2TZhHI7isc304q9fP-5" vertex="1">
          <mxGeometry x="45" y="38" width="90" height="30" as="geometry" />
        </mxCell>
        <mxCell id="4cxu4-FbFrHy6zYz7uLl-5" value="&lt;font style=&quot;font-size: 13px;&quot;&gt;&lt;b&gt;YOLOv7&lt;sup&gt;[10]&lt;/sup&gt;&lt;/b&gt;&lt;/font&gt;" style="text;html=1;align=center;verticalAlign=middle;resizable=0;points=[];autosize=1;strokeColor=none;fillColor=none;strokeWidth=1;" parent="LVU2TZhHI7isc304q9fP-5" vertex="1">
          <mxGeometry x="45" y="76" width="90" height="30" as="geometry" />
        </mxCell>
        <mxCell id="4cxu4-FbFrHy6zYz7uLl-6" value="&lt;font style=&quot;font-size: 13px;&quot;&gt;&lt;b&gt;YOLOv8l&lt;/b&gt;&lt;/font&gt;" style="text;html=1;align=center;verticalAlign=middle;resizable=0;points=[];autosize=1;strokeColor=none;fillColor=none;strokeWidth=1;" parent="LVU2TZhHI7isc304q9fP-5" vertex="1">
          <mxGeometry x="50" width="80" height="30" as="geometry" />
        </mxCell>
        <mxCell id="4cxu4-FbFrHy6zYz7uLl-8" value="&lt;b style=&quot;border-color: var(--border-color); font-size: 13px;&quot;&gt;Faster-YOLOv8l（ours）&lt;/b&gt;" style="text;html=1;align=center;verticalAlign=middle;resizable=0;points=[];autosize=1;strokeColor=none;fillColor=none;strokeWidth=1;" parent="LVU2TZhHI7isc304q9fP-5" vertex="1">
          <mxGeometry y="152" width="180" height="30" as="geometry" />
        </mxCell>
        <mxCell id="PtwD_RnPjcEU7UEEfidj-3" value="&lt;font style=&quot;font-size: 13px;&quot;&gt;&lt;b&gt;YOLOv5&lt;/b&gt;&lt;/font&gt;" style="text;html=1;align=center;verticalAlign=middle;resizable=0;points=[];autosize=1;strokeColor=none;fillColor=none;strokeWidth=1;" parent="LVU2TZhHI7isc304q9fP-5" vertex="1">
          <mxGeometry x="55" y="114" width="70" height="30" as="geometry" />
        </mxCell>
        <mxCell id="LVU2TZhHI7isc304q9fP-6" value="" style="group" parent="1" vertex="1" connectable="0">
          <mxGeometry x="295" y="198" width="180" height="182" as="geometry" />
        </mxCell>
        <mxCell id="LVU2TZhHI7isc304q9fP-7" value="&lt;font style=&quot;font-size: 13px;&quot;&gt;&lt;b&gt;0.887&lt;/b&gt;&lt;/font&gt;" style="text;html=1;align=center;verticalAlign=middle;resizable=0;points=[];autosize=1;strokeColor=none;fillColor=none;strokeWidth=1;" parent="LVU2TZhHI7isc304q9fP-6" vertex="1">
          <mxGeometry x="60" y="38" width="60" height="30" as="geometry" />
        </mxCell>
        <mxCell id="LVU2TZhHI7isc304q9fP-8" value="&lt;span style=&quot;font-size: 13px;&quot;&gt;&lt;b&gt;0.880&lt;/b&gt;&lt;/span&gt;" style="text;html=1;align=center;verticalAlign=middle;resizable=0;points=[];autosize=1;strokeColor=none;fillColor=none;strokeWidth=1;" parent="LVU2TZhHI7isc304q9fP-6" vertex="1">
          <mxGeometry x="60" y="76" width="60" height="30" as="geometry" />
        </mxCell>
        <mxCell id="LVU2TZhHI7isc304q9fP-9" value="&lt;font style=&quot;font-size: 13px;&quot;&gt;&lt;b&gt;0.897&lt;/b&gt;&lt;/font&gt;" style="text;html=1;align=center;verticalAlign=middle;resizable=0;points=[];autosize=1;strokeColor=none;fillColor=none;strokeWidth=1;" parent="LVU2TZhHI7isc304q9fP-6" vertex="1">
          <mxGeometry x="60" width="60" height="30" as="geometry" />
        </mxCell>
        <mxCell id="LVU2TZhHI7isc304q9fP-10" value="&lt;b style=&quot;border-color: var(--border-color); font-size: 13px;&quot;&gt;0.888&lt;/b&gt;" style="text;html=1;align=center;verticalAlign=middle;resizable=0;points=[];autosize=1;strokeColor=none;fillColor=none;strokeWidth=1;" parent="LVU2TZhHI7isc304q9fP-6" vertex="1">
          <mxGeometry x="60" y="152" width="60" height="30" as="geometry" />
        </mxCell>
        <mxCell id="LVU2TZhHI7isc304q9fP-11" value="&lt;font style=&quot;font-size: 13px;&quot;&gt;&lt;b&gt;0.862&lt;/b&gt;&lt;/font&gt;" style="text;html=1;align=center;verticalAlign=middle;resizable=0;points=[];autosize=1;strokeColor=none;fillColor=none;strokeWidth=1;" parent="LVU2TZhHI7isc304q9fP-6" vertex="1">
          <mxGeometry x="60" y="114" width="60" height="30" as="geometry" />
        </mxCell>
        <mxCell id="LVU2TZhHI7isc304q9fP-12" value="" style="group" parent="1" vertex="1" connectable="0">
          <mxGeometry x="414" y="198" width="180" height="182" as="geometry" />
        </mxCell>
        <mxCell id="LVU2TZhHI7isc304q9fP-13" value="&lt;font style=&quot;font-size: 13px;&quot;&gt;&lt;b&gt;0.808&lt;/b&gt;&lt;/font&gt;" style="text;html=1;align=center;verticalAlign=middle;resizable=0;points=[];autosize=1;strokeColor=none;fillColor=none;strokeWidth=1;" parent="LVU2TZhHI7isc304q9fP-12" vertex="1">
          <mxGeometry x="60" y="38" width="60" height="30" as="geometry" />
        </mxCell>
        <mxCell id="LVU2TZhHI7isc304q9fP-14" value="&lt;span style=&quot;font-size: 13px;&quot;&gt;&lt;b&gt;0.815&lt;/b&gt;&lt;/span&gt;" style="text;html=1;align=center;verticalAlign=middle;resizable=0;points=[];autosize=1;strokeColor=none;fillColor=none;strokeWidth=1;" parent="LVU2TZhHI7isc304q9fP-12" vertex="1">
          <mxGeometry x="60" y="76" width="60" height="30" as="geometry" />
        </mxCell>
        <mxCell id="LVU2TZhHI7isc304q9fP-15" value="&lt;font style=&quot;font-size: 13px;&quot;&gt;&lt;b&gt;0.812&lt;/b&gt;&lt;/font&gt;" style="text;html=1;align=center;verticalAlign=middle;resizable=0;points=[];autosize=1;strokeColor=none;fillColor=none;strokeWidth=1;" parent="LVU2TZhHI7isc304q9fP-12" vertex="1">
          <mxGeometry x="60" width="60" height="30" as="geometry" />
        </mxCell>
        <mxCell id="LVU2TZhHI7isc304q9fP-16" value="&lt;b style=&quot;border-color: var(--border-color); font-size: 13px;&quot;&gt;0.824&lt;/b&gt;" style="text;html=1;align=center;verticalAlign=middle;resizable=0;points=[];autosize=1;strokeColor=none;fillColor=none;strokeWidth=1;" parent="LVU2TZhHI7isc304q9fP-12" vertex="1">
          <mxGeometry x="60" y="152" width="60" height="30" as="geometry" />
        </mxCell>
        <mxCell id="LVU2TZhHI7isc304q9fP-17" value="&lt;font style=&quot;font-size: 13px;&quot;&gt;&lt;b&gt;0.803&lt;/b&gt;&lt;/font&gt;" style="text;html=1;align=center;verticalAlign=middle;resizable=0;points=[];autosize=1;strokeColor=none;fillColor=none;strokeWidth=1;" parent="LVU2TZhHI7isc304q9fP-12" vertex="1">
          <mxGeometry x="60" y="114" width="60" height="30" as="geometry" />
        </mxCell>
        <mxCell id="LVU2TZhHI7isc304q9fP-18" value="" style="group" parent="1" vertex="1" connectable="0">
          <mxGeometry x="539" y="198" width="180" height="182" as="geometry" />
        </mxCell>
        <mxCell id="LVU2TZhHI7isc304q9fP-19" value="&lt;font style=&quot;font-size: 13px;&quot;&gt;&lt;b&gt;0.861&lt;/b&gt;&lt;/font&gt;" style="text;html=1;align=center;verticalAlign=middle;resizable=0;points=[];autosize=1;strokeColor=none;fillColor=none;strokeWidth=1;" parent="LVU2TZhHI7isc304q9fP-18" vertex="1">
          <mxGeometry x="60" y="38" width="60" height="30" as="geometry" />
        </mxCell>
        <mxCell id="LVU2TZhHI7isc304q9fP-20" value="&lt;span style=&quot;font-size: 13px;&quot;&gt;&lt;b&gt;0.852&lt;/b&gt;&lt;/span&gt;" style="text;html=1;align=center;verticalAlign=middle;resizable=0;points=[];autosize=1;strokeColor=none;fillColor=none;strokeWidth=1;" parent="LVU2TZhHI7isc304q9fP-18" vertex="1">
          <mxGeometry x="60" y="76" width="60" height="30" as="geometry" />
        </mxCell>
        <mxCell id="LVU2TZhHI7isc304q9fP-21" value="&lt;font style=&quot;font-size: 13px;&quot;&gt;&lt;b&gt;0.863&lt;/b&gt;&lt;/font&gt;" style="text;html=1;align=center;verticalAlign=middle;resizable=0;points=[];autosize=1;strokeColor=none;fillColor=none;strokeWidth=1;" parent="LVU2TZhHI7isc304q9fP-18" vertex="1">
          <mxGeometry x="60" width="60" height="30" as="geometry" />
        </mxCell>
        <mxCell id="LVU2TZhHI7isc304q9fP-22" value="&lt;b style=&quot;border-color: var(--border-color); font-size: 13px;&quot;&gt;0.862&lt;/b&gt;" style="text;html=1;align=center;verticalAlign=middle;resizable=0;points=[];autosize=1;strokeColor=none;fillColor=none;strokeWidth=1;" parent="LVU2TZhHI7isc304q9fP-18" vertex="1">
          <mxGeometry x="60" y="152" width="60" height="30" as="geometry" />
        </mxCell>
        <mxCell id="LVU2TZhHI7isc304q9fP-23" value="&lt;font style=&quot;font-size: 13px;&quot;&gt;&lt;b&gt;0.840&lt;/b&gt;&lt;/font&gt;" style="text;html=1;align=center;verticalAlign=middle;resizable=0;points=[];autosize=1;strokeColor=none;fillColor=none;strokeWidth=1;" parent="LVU2TZhHI7isc304q9fP-18" vertex="1">
          <mxGeometry x="60" y="114" width="60" height="30" as="geometry" />
        </mxCell>
        <mxCell id="LVU2TZhHI7isc304q9fP-24" value="" style="group" parent="1" vertex="1" connectable="0">
          <mxGeometry x="680" y="198" width="180" height="182" as="geometry" />
        </mxCell>
        <mxCell id="LVU2TZhHI7isc304q9fP-25" value="&lt;font style=&quot;font-size: 13px;&quot;&gt;&lt;b&gt;0.612&lt;/b&gt;&lt;/font&gt;" style="text;html=1;align=center;verticalAlign=middle;resizable=0;points=[];autosize=1;strokeColor=none;fillColor=none;strokeWidth=1;" parent="LVU2TZhHI7isc304q9fP-24" vertex="1">
          <mxGeometry x="60" y="38" width="60" height="30" as="geometry" />
        </mxCell>
        <mxCell id="LVU2TZhHI7isc304q9fP-26" value="&lt;span style=&quot;font-size: 13px;&quot;&gt;&lt;b&gt;0.601&lt;/b&gt;&lt;/span&gt;" style="text;html=1;align=center;verticalAlign=middle;resizable=0;points=[];autosize=1;strokeColor=none;fillColor=none;strokeWidth=1;" parent="LVU2TZhHI7isc304q9fP-24" vertex="1">
          <mxGeometry x="60" y="76" width="60" height="30" as="geometry" />
        </mxCell>
        <mxCell id="LVU2TZhHI7isc304q9fP-27" value="&lt;font style=&quot;font-size: 13px;&quot;&gt;&lt;b&gt;0.611&lt;/b&gt;&lt;/font&gt;" style="text;html=1;align=center;verticalAlign=middle;resizable=0;points=[];autosize=1;strokeColor=none;fillColor=none;strokeWidth=1;" parent="LVU2TZhHI7isc304q9fP-24" vertex="1">
          <mxGeometry x="60" width="60" height="30" as="geometry" />
        </mxCell>
        <mxCell id="LVU2TZhHI7isc304q9fP-28" value="&lt;b style=&quot;border-color: var(--border-color); font-size: 13px;&quot;&gt;0.612&lt;/b&gt;" style="text;html=1;align=center;verticalAlign=middle;resizable=0;points=[];autosize=1;strokeColor=none;fillColor=none;strokeWidth=1;" parent="LVU2TZhHI7isc304q9fP-24" vertex="1">
          <mxGeometry x="60" y="152" width="60" height="30" as="geometry" />
        </mxCell>
        <mxCell id="LVU2TZhHI7isc304q9fP-29" value="&lt;font style=&quot;font-size: 13px;&quot;&gt;&lt;b&gt;0.588&lt;/b&gt;&lt;/font&gt;" style="text;html=1;align=center;verticalAlign=middle;resizable=0;points=[];autosize=1;strokeColor=none;fillColor=none;strokeWidth=1;" parent="LVU2TZhHI7isc304q9fP-24" vertex="1">
          <mxGeometry x="60" y="114" width="60" height="30" as="geometry" />
        </mxCell>
      </root>
    </mxGraphModel>
  </diagram>
</mxfile>
